<mxfile host="app.diagrams.net" modified="2024-06-04T06:10:45.652Z" agent="Mozilla/5.0 (Windows NT 10.0; Win64; x64) AppleWebKit/537.36 (KHTML, like Gecko) Chrome/125.0.0.0 Safari/537.36" version="24.2.5" etag="px_9tsttCxHbtdM1L9UJ" type="github">
  <diagram name="第 1 页" id="WI8PaVeL_SWA-QD35Jo9">
    <mxGraphModel>
      <root>
        <mxCell id="0" />
        <mxCell id="1" parent="0" />
      </root>
    </mxGraphModel>
  </diagram>
</mxfile>
